<svg xmlns="http://www.w3.org/2000/svg" width="161.732" height="166.38" viewBox="0 0 151.624 155.982"><g stroke="#000"><path d="M-395.625 530.576c-.47 3.748-.808 9.096 2.41 11.072 2.412 1.48 5.59-1.089 8.215-2.143 1.929-.774 3.465-2.409 5.446-3.036 2.996-.948 6.275-1.493 9.375-.982 1.617.267 2.841 1.837 4.465 2.054 1.076.144 2.13-.617 3.214-.536 1.248.093 2.413.686 3.571 1.16 1.294.53 2.415 1.463 3.75 1.876 1.464.453 3.046.354 4.554.625 1.35.242 2.647.939 4.018.893 1.054-.036 2.033-.567 3.036-.893 1.262-.41 2.427-1.23 3.75-1.34 2.018-.167 5.982 1.072 5.982 1.072s-3.842.504-5.715.982c-2.316.591-4.663 1.627-7.053 1.607-3.046-.025-4.995-2.338-9.107-1.34-1.013.247-2.71-.866-3.125.09-.822 1.896 2.54 4.788 4.285 5.893 1.807 1.144 3.86.791 5.983.536 1.363-.164 2.26-1.646 3.571-2.054 1.768-.549 2.409-.391 4.196.09.91.244 3.661 1.071 3.661 1.071s-1.667-.025-2.5 0c-1.52.045-3.107-.2-4.553.268-1.847.597-4.423 2.287-6.34 2.59-2.339.368-3.234-.917-5.357-1.965-1.084-.535-2.186-.578-2.946-1.518-.728-.9-.752-2.257-1.518-3.125-1.41-1.597-3.427-2.583-5.357-3.482-1.298-.604-2.685-1.09-4.107-1.25-1.246-.14-2.6-.229-3.75.268-.929.4-2.127 1.048-2.233 2.053-.144 1.38 1.373 2.473 2.411 3.393 1.495 1.325 3.477 1.972 5.268 2.857.848.42 1.664.963 2.59 1.161 1.542.33 3.2-.377 4.731 0 1.37.337 2.607 1.138 3.75 1.964 1.041.752 2.056 1.61 2.768 2.679.497.745.384 1.834.982 2.5 1.93 2.15 7.679 4.018 7.679 4.018s-6.34-.592-8.66-2.5c-.854-.702-.83-2.083-1.519-2.947-.606-.759-1.294-1.847-2.142-2.321-.904-.506-2.123-1.258-3.125-1.518-1.407-.365-2.799.575-4.197.179-2.945-.837-6.464-5.525-8.571-3.304-1.055 1.111.28 3.21 1.16 4.464.618.879 2.148 1.362 3.036 1.965 2.083 1.413 4.834 1.652 6.875 3.125 1.35.973 3.572 2.006 3.393 3.66-.228 2.11 1.059 3.338 2.946 4.197 1.313.597 1.608 4.018 1.608 4.018s-2.63-2.79-3.929-4.197c-1.53-1.656-1.487-3.932-3.304-5.268-1.93-1.42-6.25-4.624-7.767-2.768-1.078 1.319 2.07 2.705 3.035 4.108 1.002 1.455 2.23 2.813 2.857 4.464.472 1.24.484 2.61.625 3.928-.532 3.09.038 4.815-1.339 7.322 0 0 .05-3.34-.09-5-.183-2.19-.114-4.5-.981-6.518-.746-1.734-2.15-3.128-3.482-4.464-.989-.99-2.51-1.438-3.304-2.59-.796-1.154-.532-2.813-1.25-4.017-.873-1.465-2.14-2.735-3.571-3.661-.799-.517-1.733-.888-2.679-.982-2.337-.233-4.616 1.124-6.964 1.071-1.366-.03-3.204-1.9-4.018-.803-1.167 1.571 1.512 3.677 2.768 5.178 1.849 2.21 5.175 2.968 6.785 5.357 1.664 2.468 1.128 5.93 2.5 8.572.44.845.967 1.745 1.786 2.232 1.455.865 3.516.079 5 .893 2.235 1.225 5.179 5.625 5.179 5.625-1.806-1.73-3.337-4.1-5.804-4.286l.893 7.054c.178.052-.767-3.545-2.41-6.697-.895-1.715-3.688-1.526-5-2.946-.922-.997-1.143-2.466-1.786-3.661-.804-1.492-1.528-3.054-2.59-4.375-.382-.476-.745-1.39-1.339-1.25-1.577.372-.65 3.317-1.696 4.554-.577.682-1.821.599-2.322 1.339-.354.523-.431 1.265-.268 1.875.412 1.535 1.197 3.08 2.054 4.42.775 1.21 2.701 2.224 2.634 3.66-.103 2.204-1.12 4.165-2.366 5.938-1.765 2.508-3.304 4.285-3.304 4.285s3.12-5.275 3.214-8.214c.047-1.467-.119-2.948-.892-4.196-.7-1.127-2.67-1.604-3.304-2.768-.654-1.2-1-2.666-.804-4.018.266-1.831 3.112-2.64 3.616-4.42.244-.86-.571-2.318-.848-3.17-.502-1.547-1.864-2.721-3.125-3.75-.732-.597-1.555-1.316-2.5-1.339-1.317-.032-2.512.912-3.571 1.697-1.1.815-2.182 1.798-2.768 3.036-.528 1.114-.606 2.429-.536 3.66.157 2.74-.309 7.745 2.277 9.107 4.662 2.456 6.295 13.929 6.295 13.929s-3.536-11.242-7.344-10.268c-3.495.894.759 11.607.759 11.607s-2.194-5.472-3.014-9.196c-.407-1.852.883-6.336.045-8.036-.625-1.268-.767-3.334-2.143-3.66-1.863-.443-3.51 1.728-4.821 3.124-.957 1.02-1.797 2.286-2.054 3.661-.309 1.655.512 3.329.715 5 .396 3.266.982 9.822.982 9.822s-1.022-2.494-.491-6.563c.091-.704-2.413-6.246-2.188-6.92.549-1.64-.168-3.53.357-5.178.434-1.362 1.557-2.401 2.232-3.66.466-.87.663-1.889 1.25-2.68.667-.896 1.92-1.277 2.5-2.232a8.904 8.904 0 001.25-4.91c-.106-2.426-.027-6.411-2.41-6.875-2.608-.508-3.408 4.084-5.268 5.982-1.696 1.73-3.468 3.394-5.357 4.91-.85.683-2.05.986-2.679 1.876-.642.907-.93 2.102-.893 3.214.04 1.166.76 2.207 1.16 3.303.548 1.496 2.33 3.004 1.697 4.465-1.695 3.92-4.767 13.057-4.375 13.214 0 0 1.757-5.96 1.697-9.018-.037-1.862 1.085-3.642.625-5.446-.49-1.918-2.923-3.817-3.482-5.715-.229-.776.02-1.982-.715-2.321-1.767-.814-3.703 1.296-5.357 2.321-1.059.657-2.148 1.386-2.857 2.411-.862 1.246-1.018 2.855-1.518 4.286-.602 1.724-.611 3.78-1.785 5.178-1.226 1.46-5 2.768-5 2.768s3.99-3.23 5.089-5.357c1.124-2.175.064-5.288 1.428-7.321 1.145-1.707 3.825-2.043 4.822-3.84.378-.68.837-1.79.268-2.321-1.792-1.674-5.201-.034-7.232 1.34-1.198.808-2.354 2.044-3.483 2.946-1.802 1.439-4.488.9-5.357 3.035-1.536 3.777-9.107 3.929-9.107 3.929s6.808-1.216 5.804-4.196c-1.306-3.877-10.09.089-10.09.089-.002-.005 7.63-5.848 14.286-2.59 1.559.764 2.977-1.783 4.464-2.678 1.877-1.129 3.448-3.162 5.625-3.393 3.11-.33 6.572.467 9.197-2.053 1.525-1.464 4.551.949 6.34-.179 1.159-.732 1.453-2.356 1.874-3.66.425-1.319 1.63-3.156.625-4.108-2.01-1.902-5.435 1.048-8.125 1.697-2.85.686-5.589 1.85-8.482 2.321-2.648.43-5.382.051-8.036.446-1.485.222-3.012.442-4.375 1.072-1.567.725-2.62 2.33-4.196 3.036-2.781 1.246-5.91 1.55-8.929 1.964-3.512-.324-6.273-.436-10.09-.625 0 0 6.863-.038 10.18-.804 1.9-.438 4.693-.268 6.428-1.16 1.703-.876 3.854-2.192 3.84-4.108-.018-2.353-2.204-4.17-4.286-5.267-1.981-1.044-5.653-.768-7.857-1.161-2.055-.367-4.304-.395-6.25.357-.75.29-1.296.96-1.875 1.518-1.793 1.727-4.911 5.625-4.911 5.625s5.822-5.312 4.018-7.5c-1.09-1.322-4.911 1.518-4.911 1.518s3.088-2.418 4.91-3.036c1.984-.672 3.71.701 5.804.714 2.666.017 5.797-1.05 8.393-.446 3.604.837 6.84 2.926 10.447 3.75 2.508.573 5.402 2.084 7.946 1.696 3.492-.533 7.075-1.464 9.91-3.571.594-.441 1.238-2.52.983-3.214-1.627-4.417-9.226-2.127-13.929-2.322-2.894-.12-5.764.752-8.66.714-3.024-.04-5.995-.974-9.018-.982-2.603-.007-5.265.129-7.679-.714-2.01-.702-3.865-.705-6.16 1.786-1.284 1.392-6.697 5.625-6.697 5.625s4.641-5.925 6.875-7.411c1.583-1.053 3.734-2.523 5.446-1.696 3.235 1.56 6.169 1.57 8.929.535 1.842-.69 3.837 1.124 5.804 1.072 1.53-.04 4.374.456 4.464-1.072.232-3.957-7.657-2.253-11.16-4.107-2.943-1.557-5.919-3.247-9.197-1.964-1.802.705-3.922.447-5.804 0-4.297-1.021-8.648 6.493-8.571 6.607 0 0 3.04-6.032 5.089-7.41.713-.48 1.652-.49 2.5-.626 2.063-.329 4.21-.892 6.25-.446 2.679.585 5.29 1.467 7.768 1.25 3.323-.292 6.568 4.12 11.16 3.66 1.577-.157 2.774 1.582 4.286 2.054 3.424 1.069 7.049 1.427 10.625 1.697 3.68.277 7.416.417 11.072-.09 1.895-.263 3.973-.413 5.535-1.518 1.362-.962 2.15-2.597 2.858-4.107.523-1.118 1.145-2.347.982-3.571-.225-1.68-1.62-2.985-2.59-4.375-1.294-1.857-2.769-3.588-4.285-5.268-1.382-1.531-2.583-3.355-4.375-4.375-2.83-1.61-6.287-1.702-9.465-2.41-5.087-1.136-10.175-2.379-15.357-2.947-2.042-.224-4.107-.229-6.16-.179-2.298.056-4.6.858-6.875.536-1.763-.25-3.396-1.104-5-1.875-4.56-2.191-13.036-7.768-13.036-7.768s11.363 7.361 17.857 8.482c3.184.55 6.412-.926 9.643-.982 3.549-.06 7.097.323 10.625.714 4.64.515 9.47.5 13.84 2.143 4.257 1.603 8.206 10.442 11.517 7.322 2.676-2.522-2.975-6.842-5.357-9.643-2.8-3.293-6.297-6.134-10.179-8.036-3.111-1.524-6.653-2.056-10.09-2.5-4.132-.534-8.354.246-12.5-.178-3.135-.322-6.136-1.64-9.285-1.786-2.45-.114-4.881.956-7.321.714-2.445-.242-7.054-2.143-7.054-2.143s4.321.94 6.518.982c2.425.048 4.81-.934 7.232-.803 2.466.133 4.779 1.327 7.232 1.607 3.549.404 7.146-.054 10.715.09 4.144.165 8.368-.038 12.41.892 2.343.54 4.65 1.418 6.697 2.679 2.908 1.791 5.281 4.352 7.678 6.785.963.978 1.63 2.24 2.679 3.125.265.224.586.699.893.536 1.448-.768.714-3.333.268-4.91-.868-3.067-3.153-5.645-5.447-7.858-2.697-2.602-6.153-4.315-9.464-6.071-2.403-1.275-5.096-1.575-7.69-2.394-2.348-.741-4.58-2.252-7.042-2.338-4.354-.152-12.947 1.785-12.947 1.785s4.625-2.025 7.054-2.678c1.602-.43 3.253-.858 4.91-.804 4.611.151 11.208 7.139 13.483 3.125 1.142-2.014-3.976-3.317-4.064-5.631-.53-3.344-7.51-4.567-11-4.861-2.442-.562-4.93-1.233-7.436-1.293-1.31-.032-2.631-.091-3.929.089-2.588.36-7.59 1.964-7.59 1.964s3.031-1.642 4.644-2.232c1.559-.57 3.233-.57 4.884-.745 2.104-.223 4.18.689 6.277.962 2.327.304 7.284 2.63 6.875.319-.425-2.394-17.922-10.28-17.858-10.447 0 0 13.797 5.126 17.768 8.929 1.73 1.656 4.316 2.21 6.072 3.84 1.793 1.663 2.79 4.028 4.375 5.892.886 1.043 1.75 2.141 2.857 2.946 1.743 1.27 3.868 1.906 5.803 2.858 1.696.834 3.537 1.422 5.09 2.5 1.781 1.236 3.095 3.041 4.732 4.464 1.726 1.5 3.305 5.296 5.357 4.286 1.415-.697.504-3.27-.09-4.733-.966-2.38-3.398-3.863-5.267-5.625-1.83-1.724-3.991-3.078-5.804-4.821-2.856-2.746-5.399-5.805-7.946-8.84-2.017-2.402-3.597-5.18-5.804-7.41-2.145-2.167-4.488-4.215-7.143-5.714-2.845-1.607-9.196-3.393-9.196-3.393s7.48.88 10.803 2.5c2.683 1.307 4.843 3.527 6.965 5.625 2.06 2.036 2.939 7.979 5.535 6.696 2.493-1.23-1.134-5.446-1.875-8.125-.541-1.96-1.034-3.952-1.875-5.803a24.79 24.79 0 00-2.946-4.911c-1.559-2.014-5.357-5.446-5.357-5.446s4.762 3.558 6.786 5.714c1.165 1.241 2.228 2.608 3.035 4.107 1.067 1.982 1.664 4.187 2.322 6.34.797 2.609.965 5.407 1.964 7.946a23.88 23.88 0 003.125 5.625c1.445 1.915 3.277 3.517 5.09 5.089.786.683 1.68 2.519 2.5 1.875 2.138-1.68-2.732-4.823-3.215-7.5-.439-2.434.536-4.944.357-7.41-.1-1.392-.917-2.717-.803-4.108.09-1.107 1.142-2.014 1.16-3.125.02-1.13-.518-2.23-1.071-3.214-1.738-3.093-5.104-5.051-6.875-8.125-1.104-1.917-2.232-6.25-2.232-6.25s2.395 5.328 4.285 7.5c1.087 1.248 2.838 1.791 3.93 3.036 1.52 1.734 2.857 3.76 3.481 5.982.773 2.75-.628 5.83.179 8.571.128.436.26 1.164.714 1.16 2.389-.018 2.347-4.165 3.66-6.16 1.56-2.366 3.71-4.352 5-6.875.87-1.7 1.513-3.555 1.786-5.446.426-2.947-.267-8.929-.267-8.929s1.365 4.6 1.339 6.964c-.022 1.98-.496 3.974-1.25 5.804-1.346 3.267-4.085 5.793-5.714 8.929-1.483 2.854-2.64 5.878-3.661 8.928-.372 1.109-.921 2.224-.893 3.393.043 1.778.838 3.485 1.607 5.09.696 1.45 1.72 2.724 2.679 4.017.642.867 1.112 1.974 2.053 2.5.76.426 1.767.645 2.59.357 1.55-.543 2.313-2.334 3.392-3.571.752-.862 1.821-1.582 2.143-2.679.65-2.21-.507-4.58-.714-6.875-.244-2.705-1.045-5.441-.625-8.125.488-3.112 1.988-6.026 3.571-8.75.267-.458.667-.824.983-1.25 1.208-1.632 2.433-3.26 3.482-5a22.863 22.863 0 001.428-2.768c.822-1.91 2.054-5.892 2.054-5.892s-.995 6.269-2.322 9.107c-.947 2.028-2.806 3.509-3.928 5.446a19.625 19.625 0 00-1.697 3.75c-.591 1.82-1.126 3.711-1.16 5.625-.035 1.962.45 3.915.982 5.804.347 1.234.156 3.414 1.428 3.571 2.771.343 3.48-4.388 4.911-6.786.983-1.646 1.615-3.478 2.5-5.178 1.182-2.27 2.16-4.692 3.75-6.697 1.152-1.452 2.855-2.383 4.107-3.75 1.291-1.408 2.303-3.05 3.482-4.553 1.7-2.165 5.18-6.429 5.18-6.429s-3.947 7.141-6.43 10.357c-1.479 1.917-3.502 3.366-5 5.268-.745.947-1.43 1.955-1.964 3.036-.783 1.587-1.273 3.306-1.786 5-.106.352-.55.836-.267 1.071 1.934 1.612 4.506-2.273 6.875-3.125 1.827-.657 3.757-.984 5.625-1.517 1.584-.453 3.288-.636 4.732-1.429 3.237-1.778 8.393-7.232 8.393-7.232s-4.67 5.417-7.59 7.41c-1.969 1.345-4.312 2.04-6.518 2.947-2.055.845-4.215 1.427-6.25 2.321-1.315.58-2.62 1.203-3.839 1.965-1.388.867-2.814 1.747-3.928 2.946-1.276 1.373-2.099 3.11-3.036 4.732-1.458 2.525-3.026 5.027-4.018 7.768-.612 1.691-2.095 3.732-1.16 5.268.24.395.877.371 1.339.357 1.599-.049 3.064-.933 4.553-1.518 1.004-.394 2.066-.716 2.947-1.339 1.856-1.312 3.32-3.13 4.732-4.91 1.43-1.806 1.817-4.552 3.75-5.804 1.642-1.065 3.874-.563 5.803-.893 2.06-.353 4.176-.51 6.161-1.16 1.632-.536 3.29-1.176 4.643-2.233 1.616-1.262 2.65-3.13 3.928-4.732 2.106-2.638 6.161-8.036 6.161-8.036s-4.846 9.53-8.66 13.125c-1.126 1.06-4.243.791-4.018 2.322.261 1.785 3.484.972 5.267 1.25 1.947.302 3.925.52 5.893.446.993-.037 1.968-.278 2.947-.446 3.106-.534 6.354-.629 9.285-1.786.884-.349 2.411-1.518 2.411-1.518s-6.705 4.047-10.446 5c-2.195.56-4.522.414-6.786.357-2.901-.073-5.778-.552-8.66-.893-1.79-.211-3.563-.865-5.358-.714-1.304.11-2.583.569-3.75 1.16-1.024.52-1.881 1.324-2.768 2.054-2.146 1.769-4.279 3.578-6.16 5.625-1.322 1.438-2.252 3.204-3.572 4.643-.982 1.071-2.15 1.956-3.214 2.947-.54.502-1.797.805-1.607 1.517.228.858 1.712.486 2.59.625 1.857.296 3.743.445 5.624.447 2.328.003 4.675-.11 6.964-.536 2.139-.398 4.3-.91 6.25-1.875 1.681-.832 3.147-2.064 4.554-3.303 2.022-1.782 5.536-5.893 5.536-5.893s-4.118 6.45-6.965 8.928c-.985.859-3.832.734-3.393 1.965 1.064 2.981 6.394-.453 9.375-1.518 3.24-1.158 7.028-2.822 10-4.554 1.222-.712 1.186-2.595 2.59-2.768 5.587-.688 13.66-3.303 13.66-3.303s-9.258 2.442-13.214 4.464c-1.617.827-2.334 2.02-3.84 3.036-1.265.854-2.795 1.092-4.106 1.875-1.601.956-2.876 2.71-4.643 3.303-3.794 1.276-7.917 1.189-11.875 1.786-1.965.297-3.935.553-5.893.893-2.6.45-5.39.373-7.768 1.518-.704.339-1.42.827-1.786 1.518-.657 1.243-.53 2.792-.446 4.196.072 1.19-.162 2.784.804 3.482 3.415 2.47 8.38-.967 12.589-1.16 3.122-.144 6.25.07 9.375 0 1.966-.045 3.992.235 5.893-.268 2.972-.787 6-2.064 8.214-4.197 1.45-1.395 1.54-3.828 2.946-5.268 2.126-2.176 5.01-3.571 7.858-4.643 2.409-.906 7.589-1.428 7.589-1.428s-6.72 1.551-9.554 3.393c-2.03 1.32-3.282 3.562-5 5.268-1.793 1.78-3.49 3.694-5.535 5.178-1.898 1.377-3.913 2.73-6.161 3.393-3.234.955-6.733.4-10.09.714-3.31.311-6.705.27-9.91 1.161-2.015.56-3.92 1.514-5.714 2.59-1.384.829-2.813 1.701-3.84 2.946-1.1 1.334-2.106 2.926-2.321 4.643z" fill-rule="evenodd" transform="matrix(.99456 0 0 1.06614 482.467 -471.859)"/><path d="M-469.91 512.183s-4.7.52-6.124 2.147c-1.09 1.245-1.01 4.861-1.01 4.861s3.922-.37 5.24-1.641c1.365-1.318 1.894-5.367 1.894-5.367zM-484.368 504.039s4.264-1.088 6.25-.442c2.145.697 5.177 4.356 5.177 4.356s-4.725 2.044-6.945 1.263c-2.153-.759-4.482-5.177-4.482-5.177zM-471.236 502.082s-.558 2.828-.063 4.103c.699 1.805 3.977 4.23 3.977 4.23s.565-3.623-.19-5.177c-.71-1.464-3.724-3.156-3.724-3.156zM-463.66 505.743s2.47-1.042 3.41-1.957c.81-.79 1.767-2.904 1.767-2.904s-2.773.145-3.725 1.01c-1.015.923-1.452 3.851-1.452 3.851zM-455.958 504.86s-1.686 2.604-1.389 3.977c.278 1.28 2.715 2.841 2.715 2.841s1.354-2.36 1.137-3.599c-.234-1.33-2.463-3.22-2.463-3.22zM-440.048 505.175s-.674 2.326-.315 3.41c.524 1.584 3.346 3.724 3.346 3.724s1.173-3.295.505-4.735c-.6-1.292-3.536-2.399-3.536-2.399zM-450 506.871s.58-2.644 1.473-3.571c1.192-1.238 4.688-2.143 4.688-2.143s-.462 2.9-1.429 3.884c-1.186 1.206-4.732 1.83-4.732 1.83zM-438.393 494.103s.057 3.017.76 4.286c.708 1.281 3.258 2.946 3.258 2.946s.261-2.852-.357-4.062c-.735-1.437-3.66-3.17-3.66-3.17zM-482.59 494.148s.451 3.89 1.876 4.91c1.307.937 4.821.18 4.821.18s-.987-3.171-2.232-4.108c-1.218-.916-4.464-.982-4.464-.982zM-471.875 490.398s.946 3.637 2.143 5c1.118 1.273 4.375 2.59 4.375 2.59s-.043-3.809-1.16-5.18c-1.239-1.517-5.358-2.41-5.358-2.41zM-453.036 498.434s0-2.494-.535-3.572c-.759-1.527-3.572-3.66-3.572-3.66s.222 4 1.34 5.535c.636.875 2.767 1.697 2.767 1.697z" fill="none" transform="matrix(.99456 0 0 1.06614 482.467 -471.859)"/><path d="M-462.84 490.78s1.974-1.382 3.094-1.325c1.346.068 3.536 1.957 3.536 1.957s-1.978 2.22-3.283 2.146c-1.447-.082-3.346-2.777-3.346-2.777zM-448.003 495.326s-.338-2.32.253-3.22c.64-.976 3.093-1.641 3.093-1.641s.092 2.274-.505 3.157c-.618.914-2.84 1.704-2.84 1.704zM-456.084 483.078s.636 2.676 1.515 3.662c1.01 1.132 3.978 2.21 3.978 2.21s-.355-3.202-1.39-4.294c-1.007-1.064-4.103-1.578-4.103-1.578zM-463.66 486.677s2.452-1.485 3.41-2.526c1.055-1.147 2.461-3.977 2.461-3.977s-4.19.46-5.366 1.957c-.942 1.199-.505 4.546-.505 4.546zM-476.729 482.257s2.985-1.883 4.672-1.957c1.59-.07 4.546 1.452 4.546 1.452s-2.515 2.578-4.167 2.715c-1.832.152-5.05-2.21-5.05-2.21zM-431.966 485.035s-.622 2.404-.442 3.599c.23 1.528 1.894 4.23 1.894 4.23s2.412-3.457 1.894-5.24c-.394-1.354-3.346-2.589-3.346-2.589zM-468.269 472.345s2.995 1.233 4.04 2.4c1.02 1.135 1.895 4.166 1.895 4.166s-3.606-1.088-4.735-2.462c-.905-1.101-1.2-4.104-1.2-4.104zM-464.86 466.537s3.3 1.283 4.483 2.525c.94.989 1.83 3.662 1.83 3.662s-3.757.158-4.987-1.01c-1.291-1.227-1.326-5.177-1.326-5.177zM-444.215 473.671s1.431 2.21 1.579 3.472c.127 1.087-.632 3.22-.632 3.22s-1.454-2.425-1.578-3.788c-.09-.986.631-2.904.631-2.904zM-440.363 478.28s2.623-.457 3.914-.253c1.633.259 4.609 1.831 4.609 1.831s-2.835 2.132-4.42 1.894c-1.772-.265-4.103-3.472-4.103-3.472zm-14.332-8.46s3.725-.787 5.62-.884c2.335-.12 7.007.379 7.007.379s-4.08 3.498-6.566 3.535c-2.259.035-6.06-3.03-6.06-3.03zM-458.925 460.918s3.685-.547 5.24.252c1.6.822 3.346 4.23 3.346 4.23s-4.069.864-5.745-.063c-1.532-.847-2.84-4.42-2.84-4.42zM-448.381 457.635s1.594 2.362 1.83 3.725c.254 1.46-.505 4.42-.505 4.42s-1.874-2.673-2.083-4.23c-.177-1.318.758-3.915.758-3.915zM-444.467 462.433s2.275-1.879 3.662-2.21c1.642-.391 5.05.38 5.05.38s-2.463 2.073-3.977 2.398c-1.554.334-4.735-.568-4.735-.568zM-437.649 464.643s1.783 1.629 2.21 2.715c.586 1.491.316 4.798.316 4.798s-1.959-2.315-2.4-3.725c-.376-1.206-.126-3.788-.126-3.788zM-423.633 473.987s1.99 3.888 2.02 5.998c.034 2.243-1.957 6.44-1.957 6.44s-2.907-4.586-2.778-7.135c.102-1.983 2.715-5.303 2.715-5.303zM-436.828 455.299c.396-1.69 3.283-4.04 3.283-4.04s.98 3.306.632 4.924c-.364 1.69-2.715 4.42-2.715 4.42s-1.613-3.54-1.2-5.304zM-445.098 450.69s4.195.932 5.492 2.462c1.07 1.262 1.263 4.799 1.263 4.799s-4.105.384-5.43-.884c-1.568-1.502-1.325-6.377-1.325-6.377zM-428.305 464.327s3.577.036 5.114.82c1.802.922 4.293 4.294 4.293 4.294s-3.557.954-5.114.253c-2.088-.942-4.293-5.367-4.293-5.367zM-428.115 454.162s1.718-3.633 1.136-5.366c-.665-1.98-4.735-4.104-4.735-4.104s-.858 3.64-.252 5.304c.647 1.777 3.85 4.166 3.85 4.166zM-420.413 449.49s1.335 3.987.884 5.935c-.536 2.315-4.04 5.872-4.04 5.872s-.923-4.769-.253-7.008c.563-1.88 3.41-4.798 3.41-4.798zm3.473 12.88s2.892.455 3.914 1.389c1.523 1.39 2.588 5.619 2.588 5.619s-3.34-.997-4.482-2.21c-1.19-1.263-2.02-4.798-2.02-4.798zM-416.877 455.993s4.18-.834 5.997 0c2.143.985 4.61 5.367 4.61 5.367s-5.198.178-7.324-1.073c-1.553-.914-3.283-4.294-3.283-4.294zM-414.92 443.24s4.341 1.239 5.871 2.715c1.42 1.37 2.841 5.556 2.841 5.556s-5.28-.254-6.818-1.452c-2.134-1.662-1.894-6.819-1.894-6.819zM-399.39 446.586s-3.256-.02-4.482.884c-1.212.894-2.146 3.978-2.146 3.978s3.386 1.41 4.735.568c1.626-1.015 1.894-5.43 1.894-5.43zM-410.69 474.807c1.661-.877 5.619-.441 5.619-.441s-1.92 2.89-3.346 3.788c-1.889 1.19-6.44 1.83-6.44 1.83s2.208-4.142 4.167-5.177zm-3.094 17.236s4.094-2.34 5.367-4.23c1.224-1.817 1.83-6.313 1.83-6.313s-3.895 1.907-5.113 3.598c-1.413 1.961-2.084 6.945-2.084 6.945zM-394.086 471.083s-3.047.717-4.104 1.767c-1.563 1.555-2.651 6.061-2.651 6.061s4.258-1.567 5.556-3.283c.945-1.25 1.2-4.545 1.2-4.545zM-404.63 463.506s1.86.307 2.463.947c.954 1.013 1.263 3.978 1.263 3.978s-2.342-.465-3.03-1.326c-.764-.954-.695-3.599-.695-3.599zM-400.02 454.604s-2.466 3.573-2.084 5.493c.39 1.957 4.104 4.356 4.104 4.356s.755-3.878.316-5.745c-.361-1.532-2.336-4.104-2.336-4.104zM-390.55 447.28s-3.976 2.055-4.672 3.978c-.8 2.21 1.2 6.945 1.2 6.945s3.906-2.643 4.545-4.735c.612-2.002-1.073-6.187-1.073-6.187zM-394.149 465.653s2.61.042 3.536.82c.909.766 1.389 3.284 1.389 3.284s-2.302-.15-3.157-.821c-.978-.768-1.768-3.283-1.768-3.283zM-389.919 460.16s1.886 1.547 2.462 2.589c.536.97.821 3.22.821 3.22s-2.302-.758-2.904-1.705c-.737-1.16-.379-4.104-.379-4.104zM-385.689 453.405s2.97 1.497 3.599 2.904c.68 1.52-.253 4.988-.253 4.988s-3.2-1.335-3.85-2.778c-.705-1.562.504-5.114.504-5.114zM-372.873 449.301s-3.766.866-4.735 2.336c-.88 1.338-.252 4.798-.252 4.798s3.4-.366 4.356-1.578c1.155-1.463.631-5.556.631-5.556zM-382.09 466.474s-1.812 1.93-1.812 3.138c0 1.279 1.918 3.323 1.918 3.323s2.036-2.114 1.983-3.435c-.05-1.225-2.09-3.026-2.09-3.026zM-374.45 461.991s-1.603 2.015-1.866 3.23c-.432 2.002.602 6.114.602 6.114s3.27-3.503 3.289-5.696c.011-1.39-2.026-3.648-2.026-3.648zM-395.601 486.992s2.653-2.77 4.42-3.22c1.563-.398 4.798.632 4.798.632s-2.316 2.197-3.788 2.652c-1.73.534-5.43-.064-5.43-.064zM-382.658 478.217s1.76 1.62 1.894 2.715c.221 1.811-1.958 5.113-1.958 5.113s-1.868-2.606-1.83-4.103c.035-1.393 1.894-3.725 1.894-3.725zM-376.219 477.08s1.71 1.95 1.825 3.16c.152 1.596-1.572 4.543-1.572 4.543s-1.81-2.157-1.894-3.473c-.098-1.509 1.641-4.23 1.641-4.23zM-366.964 462.63c1.44-1.369 5.714-1.696 5.714-1.696s-1.42 4.335-3.036 5.803c-1.284 1.168-4.821 1.964-4.821 1.964s.587-4.592 2.143-6.07zM-370.893 470.755s1.94-1.71 3.125-1.696c1.373.016 3.572 2.053 3.572 2.053s-2.026 1.19-3.393 1.072c-.885-.076-3.304-1.429-3.304-1.429zM-368.929 472.72s2.06 1.463 2.411 2.589c.682 2.181-.982 6.785-.982 6.785s-3.383-3.626-3.393-5.893c-.006-1.332 1.964-3.482 1.964-3.482zM-353.66 464.326s-4.998 1.575-6.161 3.661c-.856 1.534.089 5.268.089 5.268s3.277-.686 4.286-1.875c1.568-1.85 1.785-7.054 1.785-7.054zM-359.732 485.666s3.093-1.924 3.84-3.482c.656-1.372.267-4.554.267-4.554s-3.006 1.61-3.75 3.036c-.773 1.481-.357 5-.357 5zM-352.232 485.666s1.975-4.769 4.107-5.804c2.091-1.015 6.964.357 6.964.357s-1.632 4.748-3.66 5.804c-2.194 1.142-7.411-.357-7.411-.357zM-380.268 491.916s1.428 4.595.804 6.785c-.772 2.71-5.268 6.608-5.268 6.608.41.204.927-4.761.446-7.947-.336-2.23 4.018-5.446 4.018-5.446zM-375.446 493.076s2.853 1.194 3.66 2.411c.904 1.362.893 4.822.893 4.822s-2.682-1.587-3.482-2.858c-.8-1.27-1.071-4.375-1.071-4.375zM-371.34 488.88s2.464 1.097 3.215 2.143c1.006 1.402 1.34 5 1.34 5s-2.742-1.91-3.572-3.304c-.676-1.134-.982-3.839-.982-3.839zM-364.821 493.612s-.912-3.037 0-4.018c1.38-1.486 6.071-.446 6.071-.446s-1.181 2.916-2.41 3.75c-1.03.698-3.661.714-3.661.714zM-366.875 497.005s3.183-1.382 4.821-1.16c1.28.172 3.929 1.874 3.393 1.874-.535 0-2.32 1.205-3.571 1.161-1.668-.058-4.643-1.875-4.643-1.875zM-354.107 488.79s2.17 1.569 2.41 2.769c.351 1.753-1.696 5.089-1.696 5.089s-2.677-2.394-2.768-4.018c-.081-1.449 2.054-3.84 2.054-3.84zM-347.59 494.237s-.684-3.395.358-4.464c1.378-1.415 5.893-.625 5.893-.625s-.686 2.773-1.697 3.66c-1.195 1.05-4.553 1.43-4.553 1.43zM-383.036 506.916s3.197 1.945 4.554 3.214c1.035.969 2.678 3.304 2.678 3.304s-3.548-.106-4.821-1.161c-1.508-1.25-2.41-5.357-2.41-5.357zM-369.107 508.523s1.556 2.785 1.428 4.286c-.16 1.884-2.678 5-2.678 5s-1.777-3.338-1.518-5.09c.245-1.657 2.768-4.196 2.768-4.196zM-358.929 503.344s1.903 3.395 1.965 5.268c.07 2.174-1.875 6.25-1.875 6.25s-2.5-5.625-2.59-6.25c-.089-.625 2.5-5.268 2.5-5.268zM-345.804 496.648s-3.043.943-3.66 2.232c-.895 1.868.803 6.16.803 6.16s2.181-2.486 2.679-4.017c.451-1.388.178-4.375.178-4.375zM-342.41 502.094s1.28-3.115 2.678-3.75c1.933-.877 6.34.625 6.34.625s-2.059 3.525-3.84 4.107c-1.67.546-5.179-.982-5.179-.982zM-352.321 510.666s3.655-1.707 5.625-1.875c2.16-.184 6.428.982 6.428.982s-4.145 3.246-6.607 3.303c-1.985.047-5.446-2.41-5.446-2.41z" fill="none" transform="matrix(.99456 0 0 1.06614 482.467 -471.859)"/></g></svg>